<svg width="42" height="42" viewBox="0 0 42 42" fill="none" xmlns="http://www.w3.org/2000/svg">
<path fill-rule="evenodd" clip-rule="evenodd" d="M21 7C17.287 7 13.726 8.475 11.1005 11.1005C8.475 13.726 7 17.287 7 21C7 24.713 8.475 28.274 11.1005 30.8995C13.726 33.525 17.287 35 21 35C24.713 35 28.274 33.525 30.8995 30.8995C33.525 28.274 35 24.713 35 21C35 17.287 33.525 13.726 30.8995 11.1005C28.274 8.475 24.713 7 21 7ZM3.5 21C3.5 11.3348 11.3348 3.5 21 3.5C30.6652 3.5 38.5 11.3348 38.5 21C38.5 30.6652 30.6652 38.5 21 38.5C11.3348 38.5 3.5 30.6652 3.5 21ZM14.875 17.5C14.5337 17.5 14.098 17.717 13.8145 18.284C13.6044 18.6952 13.2403 19.0068 12.8016 19.1507C12.3628 19.2946 11.8849 19.2593 11.472 19.0524C11.0592 18.8455 10.7449 18.4839 10.5975 18.0462C10.4502 17.6086 10.4818 17.1304 10.6855 16.716C11.4485 15.19 12.9727 14 14.875 14C16.7773 14 18.2998 15.19 19.0645 16.716C19.2682 17.1304 19.2998 17.6086 19.1525 18.0462C19.0051 18.4839 18.6908 18.8455 18.278 19.0524C17.8651 19.2593 17.3872 19.2946 16.9485 19.1507C16.5097 19.0068 16.1456 18.6952 15.9355 18.284C15.652 17.717 15.218 17.5 14.875 17.5ZM27.125 17.5C26.7838 17.5 26.348 17.717 26.0645 18.284C25.9626 18.4913 25.8207 18.6763 25.647 18.8285C25.4733 18.9807 25.2712 19.097 25.0523 19.1707C24.8334 19.2443 24.6021 19.274 24.3717 19.2578C24.1413 19.2417 23.9164 19.1801 23.7099 19.0767C23.5034 18.9732 23.3195 18.8299 23.1686 18.655C23.0178 18.4801 22.9031 18.277 22.8311 18.0576C22.7591 17.8381 22.7313 17.6066 22.7492 17.3764C22.7671 17.1461 22.8304 16.9217 22.9355 16.716C23.7003 15.19 25.2227 14 27.125 14C29.0273 14 30.5497 15.19 31.3145 16.716C31.5182 17.1304 31.5498 17.6086 31.4025 18.0462C31.2551 18.4839 30.9408 18.8455 30.528 19.0524C30.1151 19.2593 29.6372 19.2946 29.1984 19.1507C28.7597 19.0068 28.3956 18.6952 28.1855 18.284C27.902 17.717 27.468 17.5 27.125 17.5ZM15.057 25.0915C15.2091 24.9191 15.3937 24.7783 15.6002 24.6772C15.8067 24.5762 16.0311 24.5168 16.2606 24.5025C16.4901 24.4882 16.7201 24.5192 16.9376 24.5939C17.1551 24.6685 17.3557 24.7853 17.528 24.9375C18.4555 25.7565 19.6682 26.25 21 26.25C22.3318 26.25 23.5463 25.7565 24.472 24.9375C24.8201 24.6302 25.276 24.4739 25.7394 24.5027C26.2028 24.5316 26.6357 24.7434 26.943 25.0915C27.2503 25.4396 27.4066 25.8955 27.3778 26.3589C27.3489 26.8223 27.1371 27.2552 26.789 27.5625C25.1919 28.9753 23.1323 29.7536 21 29.75C18.8677 29.7536 16.8081 28.9753 15.211 27.5625C15.0386 27.4104 14.8978 27.2258 14.7967 27.0193C14.6957 26.8128 14.6363 26.5884 14.622 26.3589C14.6077 26.1294 14.6387 25.8994 14.7134 25.6819C14.788 25.4644 14.9048 25.2638 15.057 25.0915Z" fill="#1D2E4F"/>
</svg>
