<svg width="24" height="24" viewBox="0 0 24 24" fill="none" xmlns="http://www.w3.org/2000/svg">
<path d="M3.75202 6.92503C3.74671 6.82667 3.72207 6.73032 3.67951 6.64148C3.63696 6.55264 3.57732 6.47306 3.50401 6.40727C3.4307 6.34148 3.34514 6.29077 3.25224 6.25804C3.15933 6.22532 3.06088 6.21121 2.96252 6.21653C2.86416 6.22185 2.76781 6.24649 2.67898 6.28904C2.59014 6.33159 2.51055 6.39123 2.44476 6.46454C2.37897 6.53785 2.32827 6.62341 2.29554 6.71631C2.26281 6.80922 2.24871 6.90767 2.25402 7.00603L3.75202 6.92503ZM4.71802 3.09203C4.58669 3.23717 4.5173 3.4279 4.52467 3.6235C4.53205 3.8191 4.6156 4.00407 4.75749 4.13891C4.89938 4.27375 5.08836 4.34778 5.28408 4.34518C5.47981 4.34259 5.66676 4.26358 5.80502 4.12503L4.71802 3.09203ZM10.664 19.812C10.7474 19.8658 10.8407 19.9024 10.9383 19.9199C11.036 19.9374 11.1361 19.9353 11.233 19.9137C11.3299 19.8922 11.4215 19.8517 11.5026 19.7945C11.5836 19.7373 11.6526 19.6646 11.7053 19.5806C11.7581 19.4966 11.7937 19.403 11.8101 19.3051C11.8264 19.2073 11.8232 19.1071 11.8005 19.0105C11.7779 18.9139 11.7363 18.8228 11.6782 18.7424C11.6201 18.6619 11.5466 18.5938 11.462 18.542L10.664 19.812ZM15.113 20.058C14.9182 20.0173 14.7152 20.0557 14.5487 20.1646C14.3822 20.2736 14.2657 20.4442 14.225 20.639C14.1843 20.8338 14.2227 21.0368 14.3316 21.2034C14.4406 21.3699 14.6112 21.4863 14.806 21.527L15.113 20.058ZM15.645 15.544L16.1 15.064L15.012 14.031L14.557 14.511L15.645 15.544ZM17.599 14.862L19.509 15.962L20.258 14.662L18.347 13.562L17.599 14.862ZM19.878 18.242L18.457 19.737L19.545 20.771L20.965 19.275L19.878 18.242ZM8.35902 15.959C4.48302 11.878 3.83302 8.43503 3.75202 6.92503L2.25402 7.00603C2.35402 8.85603 3.13802 12.64 7.27202 16.992L8.35902 15.959ZM9.73502 9.32203L10.021 9.02003L8.93402 7.98703L8.64702 8.28903L9.73502 9.32203ZM10.247 5.26003L8.98602 3.47703L7.76102 4.34303L9.02102 6.12603L10.247 5.26003ZM9.19002 8.80503C9.01006 8.63157 8.82838 8.4599 8.64502 8.29003L8.64302 8.29203L8.64002 8.29503L8.59002 8.35303C8.49211 8.48285 8.41455 8.62683 8.36002 8.78003C8.26202 9.05503 8.21002 9.41903 8.27602 9.87303C8.40602 10.765 8.99102 11.964 10.518 13.573L11.606 12.539C10.178 11.036 9.82602 10.111 9.76002 9.65503C9.72802 9.43503 9.76002 9.32003 9.77302 9.28303L9.78102 9.26403L9.75302 9.30103L9.73502 9.32203L9.19002 8.80503ZM10.518 13.572C12.041 15.176 13.191 15.806 14.068 15.949C14.519 16.022 14.884 15.963 15.16 15.854C15.3135 15.7944 15.456 15.71 15.582 15.604L15.617 15.57L15.631 15.556L15.638 15.55L15.641 15.547L15.642 15.545C15.642 15.545 15.644 15.544 15.1 15.027C14.556 14.511 14.557 14.51 14.557 14.509L14.559 14.508L14.561 14.505L14.567 14.5L14.614 14.458C14.6234 14.4527 14.6217 14.453 14.609 14.459C14.589 14.467 14.499 14.499 14.309 14.468C13.907 14.402 13.039 14.048 11.606 12.539L10.518 13.572ZM8.98602 3.47703C7.97202 2.04303 5.94402 1.80003 4.71802 3.09203L5.80502 4.12503C6.32802 3.57503 7.24902 3.61803 7.76102 4.34303L8.98602 3.47703ZM18.457 19.737C18.178 20.031 17.887 20.189 17.603 20.217L17.75 21.709C18.497 21.636 19.102 21.238 19.545 20.771L18.457 19.737ZM10.021 9.02003C10.989 8.00103 11.057 6.40703 10.247 5.26003L9.02202 6.12603C9.44402 6.72303 9.37902 7.51903 8.93402 7.98703L10.021 9.02003ZM19.509 15.962C20.33 16.435 20.491 17.597 19.878 18.242L20.965 19.275C22.27 17.901 21.89 15.602 20.258 14.662L19.509 15.962ZM16.1 15.064C16.485 14.658 17.086 14.567 17.599 14.862L18.347 13.562C17.248 12.93 15.887 13.111 15.012 14.031L16.1 15.064ZM11.462 18.542C10.479 17.924 9.43202 17.088 8.35902 15.959L7.27202 16.992C8.42602 18.207 9.56902 19.124 10.664 19.812L11.462 18.542ZM17.602 20.217C16.7691 20.2897 15.9299 20.2361 15.113 20.058L14.806 21.527C15.7726 21.7359 16.7651 21.7972 17.75 21.709L17.602 20.217Z" fill="#1E1E1E"/>
</svg>
