<svg width="40" height="40" viewBox="0 0 40 40" fill="none" xmlns="http://www.w3.org/2000/svg">
<path d="M35.5188 11.4641L28.5359 4.4828C28.3038 4.25059 28.0282 4.06639 27.7248 3.94072C27.4215 3.81505 27.0963 3.75037 26.768 3.75037C26.4396 3.75037 26.1145 3.81505 25.8111 3.94072C25.5078 4.06639 25.2322 4.25059 25 4.4828L5.73282 23.75C5.49967 23.9813 5.31481 24.2566 5.18901 24.56C5.06321 24.8634 4.99896 25.1888 5.00001 25.5172V32.5C5.00001 33.163 5.2634 33.7989 5.73225 34.2678C6.20109 34.7366 6.83697 35 7.50001 35H14.4828C14.8113 35.001 15.1366 34.9368 15.44 34.811C15.7434 34.6852 16.0187 34.5003 16.25 34.2672L29.3234 21.1953L29.8672 23.3672L24.1172 29.1156C23.8827 29.35 23.7508 29.6679 23.7507 29.9994C23.7505 30.331 23.8821 30.649 24.1164 30.8836C24.3508 31.1181 24.6687 31.25 25.0002 31.2501C25.3318 31.2503 25.6498 31.1187 25.8844 30.8844L32.1344 24.6344C32.2873 24.4818 32.398 24.2922 32.4557 24.0841C32.5135 23.876 32.5164 23.6564 32.4641 23.4469L31.3859 19.1328L35.5188 15C35.751 14.7678 35.9352 14.4922 36.0608 14.1889C36.1865 13.8855 36.2512 13.5604 36.2512 13.232C36.2512 12.9037 36.1865 12.5785 36.0608 12.2752C35.9352 11.9718 35.751 11.6962 35.5188 11.4641ZM7.50001 28.0172L11.9828 32.5H7.50001V28.0172ZM15 31.9828L8.0172 25L21.25 11.7672L28.2328 18.75L15 31.9828ZM30 16.9828L23.0188 9.99999L26.7688 6.24999L33.75 13.2328L30 16.9828Z" fill="#1D2E4F"/>
</svg>
