<svg width="40" height="40" viewBox="0 0 40 40" fill="none" xmlns="http://www.w3.org/2000/svg">
<path d="M26.7533 2.97833L28.3633 3.41333C30.3323 3.94613 32.1271 4.98583 33.5688 6.42873C35.0106 7.87163 36.0488 9.6673 36.58 11.6367L37.0133 13.245L33.7967 14.1133L33.3617 12.505C32.9821 11.0983 32.2403 9.81568 31.2103 8.78512C30.1804 7.75455 28.8982 7.01205 27.4917 6.63167L25.8833 6.195L26.7533 2.97833ZM1.66667 3.33333H15.9667L18.445 14.4833L15.345 17.5833C17.1677 20.42 19.5795 22.8313 22.4167 24.6533L25.5167 21.555L36.6667 24.0333V38.3333H35C28.5839 38.3443 22.3023 36.494 16.9167 33.0067C12.9454 30.4366 9.56341 27.0546 6.99334 23.0833C3.50604 17.6977 1.65573 11.4161 1.66667 5V3.33333ZM5.04501 6.66667C5.32586 11.8665 6.96289 16.9023 9.79334 21.2733C12.1072 24.8483 15.1517 27.8928 18.7267 30.2067C23.0977 33.0371 28.1335 34.6741 33.3333 34.955V26.7067L26.5783 25.2067L22.955 28.8317L21.85 28.2033C17.6544 25.8191 14.1809 22.3456 11.7967 18.15L11.1683 17.045L14.7933 13.4217L13.2933 6.66667H5.04501ZM25.23 8.60833L26.84 9.04333C27.8245 9.30973 28.7219 9.82958 29.4428 10.551C30.1636 11.2725 30.6827 12.1703 30.9483 13.155L31.3817 14.7633L28.165 15.6317L27.73 14.0233C27.616 13.6013 27.3934 13.2165 27.0843 12.9074C26.7751 12.5983 26.3904 12.3756 25.9683 12.2617L24.36 11.8267L25.23 8.60833Z" fill="#1D2E4F"/>
</svg>
