<svg width="166" height="17" viewBox="0 0 166 17" fill="none" xmlns="http://www.w3.org/2000/svg">
<path d="M14.5302 16.038H11.7483V13.7664C10.3273 15.3475 8.63273 16.138 6.66468 16.138C5.20366 16.138 4.04284 15.7277 3.18224 14.9072C2.3283 14.0866 1.90134 12.9525 1.90134 11.5048V2.67858C1.90134 2.14487 1.83796 1.80797 1.7112 1.66787C1.58445 1.5211 1.28757 1.44771 0.820577 1.44771V1.29761H4.73333V1.44771C4.3197 1.44771 4.02616 1.51443 3.85271 1.64785C3.68592 1.77461 3.60253 2.08149 3.60253 2.5685V10.6642C3.60253 12.3587 3.99948 13.5696 4.79337 14.2967C5.58726 15.0172 6.49123 15.3775 7.50527 15.3775C9.09973 15.3775 10.5141 14.6603 11.7483 13.226V3.24898C11.7483 2.37503 11.6715 1.858 11.5181 1.69789C11.3647 1.5311 11.1245 1.44771 10.7976 1.44771H10.6575V1.29761H14.5302V1.44771C14.0499 1.4744 13.7463 1.55445 13.6196 1.68788C13.4995 1.82131 13.4394 2.07482 13.4394 2.44842V14.4569C13.4394 14.9305 13.4628 15.2407 13.5095 15.3875C13.5562 15.5343 13.6496 15.6577 13.7897 15.7578C13.9365 15.8512 14.1833 15.8979 14.5302 15.8979V16.038ZM16.1714 1.44771V1.29761H20.3543C21.415 1.29761 22.1823 1.32096 22.6559 1.36766C23.1296 1.41436 23.6133 1.57113 24.1069 1.83799C24.6073 2.09817 24.9842 2.45509 25.2377 2.90874C25.4912 3.35572 25.618 3.90611 25.618 4.5599C25.618 5.30709 25.3912 6.02093 24.9375 6.7014C24.4905 7.37521 23.8568 7.94561 23.0362 8.41261L24.0769 10.0137C24.3037 10.414 24.9042 11.2913 25.8782 12.6456C26.8589 13.9999 27.6161 14.8271 28.1498 15.1273C28.6835 15.4209 29.2005 15.5676 29.7009 15.5676C30.1945 15.5676 30.7616 15.3775 31.4021 14.9972L31.4621 15.1974C30.6615 15.8512 29.6208 16.1781 28.3399 16.1781C27.486 16.1781 26.7521 15.9279 26.1384 15.4275C25.5246 14.9205 24.4572 13.5329 22.9361 11.2646C22.9228 11.2513 22.9161 11.2379 22.9161 11.2246L21.4351 8.94298L20.1241 8.98301H18.9333V14.627C18.9333 15.0806 18.9933 15.4075 19.1134 15.6077C19.2335 15.8011 19.5237 15.8979 19.984 15.8979V16.038H16.1714V15.8979C16.645 15.8779 16.9386 15.7778 17.052 15.5977C17.1721 15.4175 17.2321 15.0506 17.2321 14.4969V2.77865C17.2321 2.39838 17.1821 2.08483 17.082 1.83799C16.9819 1.58448 16.6784 1.45438 16.1714 1.44771ZM18.9333 1.68788V8.60274H20.4744C21.6886 8.60274 22.5892 8.31587 23.1763 7.74213C23.7634 7.1684 24.0569 6.41454 24.0569 5.48055C24.0569 4.57324 23.7667 3.71597 23.1863 2.90874C22.6126 2.09483 21.5985 1.68788 20.1442 1.68788H18.9333ZM32.4428 1.44771V1.29761H36.2755C37.3963 1.29761 38.1902 1.34431 38.6572 1.43771C39.1242 1.5311 39.5711 1.71123 39.9981 1.97808C40.4251 2.23827 40.7887 2.61853 41.0889 3.11889C41.3891 3.61257 41.5392 4.1763 41.5392 4.81007C41.5392 6.05762 40.9254 7.04164 39.6979 7.76215C40.7586 7.94228 41.5592 8.38258 42.0996 9.08308C42.64 9.7769 42.9102 10.6208 42.9102 11.6149C42.9102 12.5422 42.6767 13.3861 42.2097 14.1466C41.7493 14.9072 41.219 15.4142 40.6185 15.6677C40.0248 15.9145 39.1909 16.038 38.1168 16.038H32.4228V15.8979C32.8764 15.8979 33.1666 15.8078 33.2934 15.6277C33.4201 15.4409 33.4835 14.9705 33.4835 14.2167V3.10888C33.4835 2.57517 33.4668 2.21158 33.4335 2.01811C33.4068 1.82464 33.3101 1.68121 33.1433 1.58781C32.9765 1.49441 32.743 1.44771 32.4428 1.44771ZM35.1847 1.60782V8.08237H36.976C38.1902 8.08237 38.9941 7.73546 39.3877 7.04164C39.788 6.34782 39.9881 5.65734 39.9881 4.97019C39.9881 4.22967 39.8347 3.61257 39.5278 3.11889C39.2209 2.61853 38.7706 2.2416 38.1768 1.98809C37.5897 1.73458 36.7225 1.60782 35.575 1.60782H35.1847ZM36.3355 8.39259H35.1847V13.0659C35.1847 13.713 35.2081 14.1333 35.2548 14.3268C35.3081 14.5202 35.4216 14.7237 35.595 14.9372C35.7751 15.1507 36.062 15.3241 36.4556 15.4576C36.8492 15.5843 37.4163 15.6477 38.1568 15.6477C39.3043 15.6477 40.1149 15.3842 40.5885 14.8571C41.0622 14.3234 41.299 13.5362 41.299 12.4955C41.299 11.4147 41.0889 10.5341 40.6686 9.85362C40.2483 9.17314 39.7713 8.75952 39.2376 8.61275C38.7105 8.46598 37.7432 8.39259 36.3355 8.39259ZM51.3361 9.2532H47.033L44.8015 14.8271C44.648 15.2274 44.5713 15.4742 44.5713 15.5676C44.5713 15.7878 44.7348 15.8979 45.0617 15.8979V16.038H42.8701V15.8979C43.1637 15.8979 43.4105 15.8278 43.6106 15.6877C43.8108 15.5409 44.0309 15.1674 44.2711 14.5669L49.6149 1.07745H49.865L55.1287 14.1066C55.1287 14.1733 55.2622 14.4902 55.529 15.0573C55.8025 15.6177 56.2162 15.8979 56.7699 15.8979V16.038H53.3275V15.8979C53.641 15.8979 53.7978 15.7744 53.7978 15.5276C53.7978 15.3608 53.7211 15.094 53.5676 14.727C53.541 14.7004 53.5176 14.657 53.4976 14.597C53.4842 14.5302 53.4742 14.4969 53.4676 14.4969L51.3361 9.2532ZM47.1731 8.84291H51.1559L49.1645 3.81938L47.1731 8.84291ZM69.769 1.29761H72.621V1.44771C72.1874 1.46105 71.8872 1.55445 71.7204 1.72791C71.5536 1.89469 71.4702 2.25161 71.4702 2.79866V16.2181L59.712 3.69929V14.607C59.712 14.9539 59.7386 15.2107 59.792 15.3775C59.8454 15.5443 59.9221 15.6577 60.0222 15.7177C60.1222 15.7778 60.3724 15.8378 60.7727 15.8979V16.038H57.9407V15.8979C58.4477 15.8979 58.7613 15.8078 58.8814 15.6277C59.0081 15.4475 59.0715 15.0172 59.0715 14.3368V4.35976C59.0715 3.48581 58.9481 2.77198 58.7012 2.21825C58.4611 1.66453 57.9007 1.40768 57.0201 1.44771V1.29761H59.792L70.8398 13.0659V2.65856C70.8398 2.09817 70.7397 1.75793 70.5396 1.63785C70.3394 1.51109 70.0826 1.44771 69.769 1.44771V1.29761ZM82.7181 1.29761H84.9297V1.44771C84.6495 1.46773 84.4193 1.53444 84.2392 1.64785C84.0591 1.76127 83.8522 1.99476 83.6188 2.34835L80.0162 7.80218V14.5669C80.0162 15.114 80.0863 15.4742 80.2264 15.6477C80.3665 15.8145 80.67 15.8979 81.137 15.8979V16.038H77.2042V15.8979C77.9581 15.9446 78.335 15.6477 78.335 15.0072L78.315 14.5869V8.35256L74.7025 2.36836C74.3222 1.73458 73.8986 1.4277 73.4316 1.44771V1.29761H76.914V1.44771C76.5871 1.44771 76.4237 1.57113 76.4237 1.81797C76.4237 1.94473 76.5071 2.14153 76.6739 2.40839L79.646 7.31183L82.8982 2.36836C82.9583 2.31499 83.025 2.21825 83.0984 2.07816C83.1718 1.93139 83.2085 1.83132 83.2085 1.77794C83.2085 1.55779 83.065 1.44771 82.7782 1.44771H82.7181V1.29761ZM91.8245 1.44771V1.29761H96.0075C97.0682 1.29761 97.8354 1.32096 98.3091 1.36766C98.7827 1.41436 99.2664 1.57113 99.7601 1.83799C100.26 2.09817 100.637 2.45509 100.891 2.90874C101.144 3.35572 101.271 3.90611 101.271 4.5599C101.271 5.30709 101.044 6.02093 100.591 6.7014C100.144 7.37521 99.5099 7.94561 98.6893 8.41261L99.7301 10.0137C99.9569 10.414 100.557 11.2913 101.531 12.6456C102.512 13.9999 103.269 14.8271 103.803 15.1273C104.337 15.4209 104.854 15.5676 105.354 15.5676C105.848 15.5676 106.415 15.3775 107.055 14.9972L107.115 15.1974C106.315 15.8512 105.274 16.1781 103.993 16.1781C103.139 16.1781 102.405 15.9279 101.792 15.4275C101.178 14.9205 100.11 13.5329 98.5893 11.2646C98.5759 11.2513 98.5693 11.2379 98.5693 11.2246L97.0882 8.94298L95.7773 8.98301H94.5865V14.627C94.5865 15.0806 94.6465 15.4075 94.7666 15.6077C94.8867 15.8011 95.1769 15.8979 95.6372 15.8979V16.038H91.8245V15.8979C92.2982 15.8779 92.5917 15.7778 92.7051 15.5977C92.8252 15.4175 92.8853 15.0506 92.8853 14.4969V2.77865C92.8853 2.39838 92.8352 2.08483 92.7352 1.83799C92.6351 1.58448 92.3315 1.45438 91.8245 1.44771ZM94.5865 1.68788V8.60274H96.1275C97.3417 8.60274 98.2424 8.31587 98.8294 7.74213C99.4165 7.1684 99.7101 6.41454 99.7101 5.48055C99.7101 4.57324 99.4199 3.71597 98.8394 2.90874C98.2657 2.09483 97.2517 1.68788 95.7973 1.68788H94.5865ZM108.056 1.46773V1.29761H117.322V3.32903H117.172C116.972 2.57517 116.802 2.13153 116.662 1.9981C116.529 1.86467 116.195 1.79796 115.661 1.79796H110.798V8.41261H115.311C115.758 8.41261 116.042 8.37258 116.162 8.29252C116.282 8.20579 116.345 8.08237 116.352 7.92226H116.502V9.31324H116.352C116.318 9.11977 116.238 8.98968 116.112 8.92296C115.992 8.85625 115.765 8.82289 115.431 8.82289H110.798V13.3761C110.798 14.0632 110.861 14.5603 110.988 14.8671C111.115 15.1674 111.315 15.3575 111.588 15.4375C111.869 15.5109 112.289 15.5476 112.849 15.5476H115.451C116.278 15.5476 116.805 15.5209 117.032 15.4676C117.266 15.4075 117.463 15.2941 117.623 15.1273C117.783 14.9539 117.906 14.5803 117.993 14.0065H118.133V16.038H108.056V15.8979C108.396 15.8779 108.653 15.8145 108.826 15.7077C109.007 15.5943 109.097 15.3075 109.097 14.8471V2.93876C109.097 2.39838 109.05 2.01811 108.957 1.79796C108.863 1.5778 108.563 1.46773 108.056 1.46773ZM126.929 9.2532H122.626L120.395 14.8271C120.241 15.2274 120.164 15.4742 120.164 15.5676C120.164 15.7878 120.328 15.8979 120.655 15.8979V16.038H118.463V15.8979C118.757 15.8979 119.004 15.8278 119.204 15.6877C119.404 15.5409 119.624 15.1674 119.864 14.5669L125.208 1.07745H125.458L130.722 14.1066C130.722 14.1733 130.855 14.4902 131.122 15.0573C131.396 15.6177 131.809 15.8979 132.363 15.8979V16.038H128.921V15.8979C129.234 15.8979 129.391 15.7744 129.391 15.5276C129.391 15.3608 129.314 15.094 129.161 14.727C129.134 14.7004 129.111 14.657 129.091 14.597C129.077 14.5302 129.067 14.4969 129.061 14.4969L126.929 9.2532ZM122.766 8.84291H126.749L124.758 3.81938L122.766 8.84291ZM132.723 16.038V15.8979C133.184 15.8979 133.48 15.8111 133.614 15.6377C133.754 15.4642 133.824 15.1674 133.824 14.7471V2.67858C133.824 2.25161 133.771 1.94473 133.664 1.75793C133.557 1.56446 133.237 1.46105 132.703 1.44771V1.29761H136.656V1.44771C136.289 1.44771 136.032 1.49441 135.885 1.58781C135.739 1.68121 135.642 1.79129 135.595 1.91804C135.549 2.0448 135.525 2.33167 135.525 2.77865V13.1259C135.525 14.0132 135.739 14.6403 136.166 15.0072C136.593 15.3675 137.323 15.5476 138.357 15.5476H140.158C141.026 15.5476 141.66 15.3341 142.06 14.9072C142.467 14.4802 142.694 13.6763 142.74 12.4955H142.88V16.038H132.723ZM154.178 0.787248L153.478 2.5685H153.338C153.364 2.46176 153.378 2.31832 153.378 2.1382C153.378 1.98476 153.321 1.88802 153.208 1.84799C153.101 1.80129 152.927 1.77794 152.687 1.77794H148.835V14.3968C148.835 14.9172 148.875 15.2741 148.955 15.4676C149.041 15.6544 149.155 15.7744 149.295 15.8278C149.442 15.8745 149.675 15.8979 149.995 15.8979V16.038H146.003V15.8979C146.503 15.8645 146.816 15.7678 146.943 15.6077C147.07 15.4475 147.133 15.114 147.133 14.607V1.77794H143.441C143.067 1.77794 142.824 1.80129 142.71 1.84799C142.597 1.88802 142.54 1.99476 142.54 2.16822C142.54 2.25495 142.567 2.38837 142.62 2.5685H142.48L141.78 0.787248H141.92C142.04 1.02742 142.157 1.17419 142.27 1.22756C142.39 1.27426 142.644 1.29761 143.03 1.29761H152.827C153.214 1.29761 153.491 1.27426 153.658 1.22756C153.831 1.17419 153.958 1.02742 154.038 0.787248H154.178ZM163.575 1.29761H165.786V1.44771C165.506 1.46773 165.276 1.53444 165.096 1.64785C164.916 1.76127 164.709 1.99476 164.476 2.34835L160.873 7.80218V14.5669C160.873 15.114 160.943 15.4742 161.083 15.6477C161.223 15.8145 161.527 15.8979 161.994 15.8979V16.038H158.061V15.8979C158.815 15.9446 159.192 15.6477 159.192 15.0072L159.172 14.5869V8.35256L155.559 2.36836C155.179 1.73458 154.755 1.4277 154.288 1.44771V1.29761H157.771V1.44771C157.444 1.44771 157.281 1.57113 157.281 1.81797C157.281 1.94473 157.364 2.14153 157.531 2.40839L160.503 7.31183L163.755 2.36836C163.815 2.31499 163.882 2.21825 163.955 2.07816C164.029 1.93139 164.065 1.83132 164.065 1.77794C164.065 1.55779 163.922 1.44771 163.635 1.44771H163.575V1.29761Z" fill="#2C3F60"/>
</svg>
