<svg width="166" height="17" fill="none" xmlns="http://www.w3.org/2000/svg"><path d="M14.53 16.038h-2.782v-2.272c-1.42 1.582-3.115 2.372-5.083 2.372-1.461 0-2.622-.41-3.483-1.23-.854-.821-1.28-1.955-1.28-3.403V2.679c0-.534-.064-.871-.19-1.011-.128-.147-.424-.22-.891-.22v-.15h3.912v.15c-.413 0-.707.066-.88.2-.167.127-.25.433-.25.92v8.096c0 1.695.396 2.906 1.19 3.633.794.72 1.698 1.08 2.712 1.08 1.595 0 3.01-.717 4.243-2.151V3.249c0-.874-.076-1.391-.23-1.551-.153-.167-.394-.25-.72-.25h-.14v-.15h3.872v.15c-.48.026-.784.106-.91.24-.12.133-.18.387-.18.76v12.009c0 .473.023.784.07.93.046.147.14.27.28.37.147.094.393.14.74.14v.141Zm1.641-14.59v-.15h4.183c1.061 0 1.828.023 2.302.07.474.046.957.203 1.45.47.501.26.878.617 1.132 1.07.253.448.38.998.38 1.652 0 .747-.227 1.46-.68 2.141-.447.674-1.081 1.245-1.902 1.712l1.04 1.6c.228.401.828 1.278 1.802 2.633.98 1.354 1.738 2.181 2.272 2.481.534.294 1.05.44 1.55.44.495 0 1.062-.19 1.702-.57l.06.2c-.8.654-1.841.981-3.122.981-.854 0-1.588-.25-2.202-.75-.613-.508-1.68-1.895-3.202-4.163-.013-.014-.02-.027-.02-.04l-1.48-2.282-1.312.04h-1.19v5.644c0 .454.06.78.18.98.12.194.41.29.87.29v.141h-3.813v-.14c.474-.02.768-.12.881-.3.12-.18.18-.547.18-1.101V2.779c0-.38-.05-.694-.15-.941-.1-.254-.404-.384-.91-.39Zm2.762.24v6.915h1.541c1.215 0 2.115-.287 2.702-.86.587-.575.88-1.328.88-2.262 0-.908-.29-1.765-.87-2.572-.573-.814-1.587-1.221-3.042-1.221h-1.21Zm13.51-.24v-.15h3.833c1.12 0 1.914.046 2.381.14.467.093.914.273 1.341.54.427.26.79.64 1.09 1.14.301.495.451 1.058.451 1.692 0 1.248-.614 2.232-1.841 2.952 1.06.18 1.861.62 2.402 1.321.54.694.81 1.538.81 2.532 0 .927-.233 1.771-.7 2.532-.46.76-.991 1.267-1.592 1.52-.593.248-1.427.371-2.501.371h-5.694v-.14c.453 0 .744-.09.87-.27.127-.187.19-.658.19-1.411V3.109c0-.534-.016-.897-.05-1.09a.554.554 0 0 0-.29-.431c-.166-.094-.4-.14-.7-.14Zm2.742.16v6.474h1.791c1.214 0 2.018-.347 2.412-1.04.4-.694.6-1.385.6-2.072 0-.74-.153-1.357-.46-1.851-.307-.5-.757-.877-1.351-1.13-.587-.254-1.455-.381-2.602-.381h-.39Zm1.15 6.785h-1.15v4.673c0 .647.023 1.067.07 1.26.053.194.167.398.34.611.18.214.467.387.86.52.394.127.961.19 1.702.19 1.147 0 1.958-.263 2.432-.79.473-.534.71-1.32.71-2.361 0-1.081-.21-1.962-.63-2.642-.42-.68-.898-1.094-1.431-1.241-.527-.147-1.495-.22-2.902-.22Zm15.001.86h-4.303l-2.232 5.574c-.153.4-.23.647-.23.74 0 .22.164.33.49.33v.141h-2.19v-.14c.293 0 .54-.07.74-.21.2-.147.42-.52.66-1.121l5.344-13.49h.25l5.264 13.03c0 .066.133.383.4.95.273.56.687.84 1.24.84v.141h-3.441v-.14c.313 0 .47-.124.47-.37 0-.167-.077-.434-.23-.801a.334.334 0 0 1-.07-.13c-.014-.067-.024-.1-.03-.1l-2.132-5.244Zm-4.163-.41h3.983l-1.992-5.024-1.99 5.024ZM69.77 1.298h2.852v.15c-.434.013-.734.106-.9.28-.167.167-.25.524-.25 1.07v13.42L59.711 3.7v10.908c0 .347.027.604.08.77.053.167.13.28.23.34s.35.12.75.18v.141h-2.831v-.14c.507 0 .82-.09.94-.27.127-.18.19-.61.19-1.291V4.36c0-.874-.123-1.588-.37-2.142-.24-.553-.8-.81-1.68-.77v-.15h2.771L70.84 13.066V2.659c0-.56-.1-.901-.3-1.021-.2-.127-.457-.19-.771-.19v-.15Zm12.95 0h2.21v.15c-.28.02-.51.086-.69.2-.18.113-.387.347-.62.7l-3.603 5.454v6.765c0 .547.07.907.21 1.08.14.168.444.25.911.25v.141h-3.933v-.14c.754.047 1.131-.25 1.131-.89l-.02-.421V8.353l-3.612-5.985c-.38-.633-.804-.94-1.271-.92v-.15h3.482v.15c-.327 0-.49.123-.49.37 0 .127.083.324.25.59l2.972 4.904 3.252-4.944c.06-.053.127-.15.2-.29.074-.147.11-.247.11-.3 0-.22-.143-.33-.43-.33h-.06v-.15Zm9.106.15v-.15h4.182c1.061 0 1.828.023 2.302.07.474.046.957.203 1.451.47.5.26.877.617 1.131 1.07.253.448.38.998.38 1.652 0 .747-.227 1.46-.68 2.141-.447.674-1.081 1.245-1.902 1.712l1.041 1.6c.227.401.827 1.278 1.801 2.633.981 1.354 1.738 2.181 2.272 2.481.534.294 1.051.44 1.551.44.494 0 1.061-.19 1.701-.57l.06.2c-.8.654-1.841.981-3.122.981-.854 0-1.588-.25-2.201-.75-.614-.508-1.682-1.895-3.203-4.163-.013-.014-.02-.027-.02-.04l-1.48-2.282-1.312.04h-1.19v5.644c0 .454.06.78.18.98.12.194.41.29.87.29v.141h-3.813v-.14c.474-.02.768-.12.881-.3.12-.18.18-.547.18-1.101V2.779c0-.38-.05-.694-.15-.941-.1-.254-.403-.384-.91-.39Zm2.761.24v6.915h1.541c1.215 0 2.115-.287 2.702-.86.588-.575.881-1.328.881-2.262 0-.908-.29-1.765-.87-2.572-.574-.814-1.588-1.221-3.043-1.221h-1.21Zm13.47-.22v-.17h9.266v2.031h-.15c-.2-.754-.37-1.197-.51-1.33-.133-.134-.467-.201-1.001-.201h-4.863v6.615h4.513c.447 0 .731-.04.851-.12a.456.456 0 0 0 .19-.37h.15v1.39h-.15c-.034-.193-.114-.323-.24-.39-.12-.067-.347-.1-.681-.1h-4.633v4.553c0 .687.063 1.184.19 1.491.127.3.327.49.6.57.281.074.701.11 1.261.11h2.602c.827 0 1.354-.026 1.581-.08.234-.06.431-.173.591-.34.16-.173.283-.547.37-1.12h.14v2.031h-10.077v-.14c.34-.02.597-.083.77-.19.181-.114.271-.4.271-.86V2.937c0-.54-.047-.92-.14-1.14-.094-.22-.394-.33-.901-.33Zm18.873 7.785h-4.303l-2.231 5.574c-.154.4-.231.647-.231.74 0 .22.164.33.491.33v.141h-2.192v-.14c.294 0 .541-.07.741-.21.2-.147.42-.52.66-1.121l5.344-13.49h.25l5.264 13.03c0 .066.133.383.4.95.274.56.687.84 1.241.84v.141h-3.442v-.14c.313 0 .47-.124.47-.37 0-.167-.077-.434-.23-.801a.329.329 0 0 1-.07-.13c-.014-.067-.024-.1-.03-.1l-2.132-5.244Zm-4.163-.41h3.983l-1.991-5.024-1.992 5.024Zm9.957 7.195v-.14c.461 0 .757-.087.891-.26.14-.174.21-.47.21-.89V2.677c0-.426-.053-.733-.16-.92-.107-.194-.427-.297-.961-.31v-.15h3.953v.15c-.367 0-.624.046-.771.14a.683.683 0 0 0-.29.33c-.046.127-.07.414-.07.86v10.348c0 .887.214 1.514.641 1.881.427.36 1.157.54 2.191.54h1.801c.868 0 1.502-.213 1.902-.64.407-.427.634-1.23.68-2.412h.14v3.543h-10.157ZM154.178.788l-.7 1.78h-.14c.026-.106.04-.25.04-.43 0-.153-.057-.25-.17-.29-.107-.047-.281-.07-.521-.07h-3.852v12.619c0 .52.04.877.12 1.07.086.187.2.307.34.36.147.047.38.07.7.07v.141h-3.992v-.14c.5-.034.813-.13.94-.29.127-.16.19-.494.19-1.001V1.777h-3.692c-.374 0-.617.024-.731.071-.113.04-.17.147-.17.32 0 .087.027.22.08.4h-.14l-.7-1.78h.14c.12.24.237.386.35.44.12.046.374.07.76.07h9.797c.387 0 .664-.024.831-.07.173-.054.3-.2.38-.44h.14Zm9.397.51h2.211v.15c-.28.02-.51.086-.69.2-.18.113-.387.347-.62.7l-3.603 5.454v6.765c0 .547.07.907.21 1.08.14.168.444.25.911.25v.141h-3.933v-.14c.754.047 1.131-.25 1.131-.89l-.02-.421V8.353l-3.613-5.985c-.38-.633-.804-.94-1.271-.92v-.15h3.483v.15c-.327 0-.49.123-.49.37 0 .127.083.324.25.59l2.972 4.904 3.252-4.944c.06-.053.127-.15.2-.29.074-.147.11-.247.11-.3 0-.22-.143-.33-.43-.33h-.06v-.15Z" fill="#2C3F60"/></svg>