<?xml version="1.0" encoding="utf-8"?><svg viewBox="0 0 88 42" xmlns="http://www.w3.org/2000/svg" xmlns:xlink="http://www.w3.org/1999/xlink"><style>:root>svg{display:none}:root>svg:target{display:block}</style><svg fill="none" viewBox="0 0 16 22" id="arrow-up" xmlns="http://www.w3.org/2000/svg"><path d="M9.031.585a1.444 1.444 0 0 0-.477-.303 1.358 1.358 0 0 0-1.097 0c-.178.069-.34.172-.477.303L1.202 6.363a1.45 1.45 0 0 0 2.051 2.051l3.308-3.322v15.297a1.444 1.444 0 1 0 2.889 0V5.092l3.308 3.322a1.45 1.45 0 0 0 2.05-2.051L9.032.585Z" fill="currentColor"/></svg><svg fill="none" viewBox="0 0 24 24" id="bracket-gt" xmlns="http://www.w3.org/2000/svg"><path d="M8.4 1.2 6.72 3l8.88 9-8.88 9 1.68 1.8L19.2 12 8.4 1.2Z" fill="currentColor"/></svg><svg fill="none" viewBox="0 0 24 24" id="bracket-lt" xmlns="http://www.w3.org/2000/svg"><path d="m15.6 22.8 1.68-1.8-8.88-9 8.88-9-1.68-1.8L4.8 12l10.8 10.8Z" fill="currentColor"/></svg><svg viewBox="0 0 14 14" id="cross" xmlns="http://www.w3.org/2000/svg"><path fill-rule="evenodd" clip-rule="evenodd" d="m8.414 7 5.293-5.293A.999.999 0 1 0 12.293.293L7 5.586 1.707.293A.999.999 0 1 0 .293 1.707L5.586 7 .293 12.293a.999.999 0 1 0 1.414 1.414L7 8.414l5.293 5.293a.997.997 0 0 0 1.414 0 .999.999 0 0 0 0-1.414L8.414 7Z" fill="currentColor"/></svg><svg fill="none" viewBox="0 0 40 40" id="icon-callback" xmlns="http://www.w3.org/2000/svg"><path d="m26.753 2.978 1.61.435a11.666 11.666 0 0 1 8.217 8.224l.433 1.608-3.216.868-.435-1.608a8.333 8.333 0 0 0-5.87-5.873l-1.609-.437.87-3.217Zm-25.086.355h14.3l2.478 11.15-3.1 3.1a23.499 23.499 0 0 0 7.072 7.07l3.1-3.098 11.15 2.478v14.3H35a33.166 33.166 0 0 1-18.083-5.326 33.5 33.5 0 0 1-9.924-9.924A33.166 33.166 0 0 1 1.667 5V3.333Zm3.378 3.334a29.833 29.833 0 0 0 4.748 14.606 30.165 30.165 0 0 0 8.934 8.934 29.834 29.834 0 0 0 14.606 4.748v-8.248l-6.755-1.5-3.623 3.625-1.105-.629A26.783 26.783 0 0 1 11.797 18.15l-.629-1.105 3.625-3.623-1.5-6.755H5.045ZM25.23 8.608l1.61.435a5.834 5.834 0 0 1 4.108 4.112l.434 1.608-3.217.869-.435-1.609a2.5 2.5 0 0 0-1.762-1.761l-1.608-.435.87-3.219Z" fill="#1D2E4F"/></svg><svg fill="none" viewBox="0 0 88 8" id="icon-large-arrow" xmlns="http://www.w3.org/2000/svg"><path d="M87.354 4.354a.5.5 0 0 0 0-.708L84.172.464a.5.5 0 1 0-.707.708L86.293 4l-2.829 2.828a.5.5 0 1 0 .708.708l3.182-3.182ZM0 4.5h87v-1H0v1Z" fill="#1D2E4F"/></svg><svg fill="none" viewBox="0 0 12 24" id="icon-left-arrow" xmlns="http://www.w3.org/2000/svg"><path fill-rule="evenodd" clip-rule="evenodd" d="M1.843 11.289 7.5 5.632l1.414 1.414-4.95 4.95 4.95 4.95L7.5 18.36l-5.657-5.657a1 1 0 0 1 0-1.414Z" fill="#000"/></svg><svg fill="none" viewBox="0 0 40 40" id="icon-marker" xmlns="http://www.w3.org/2000/svg"><path d="M20 29a4 4 0 0 1-3.988-3.68A12.004 12.004 0 0 1 20 2a12 12 0 0 1 11.96 11 .939.939 0 0 1-.96 1 1.08 1.08 0 0 1-1.05-1 10 10 0 1 0-13.58 10.32A4 4 0 1 1 20 29Zm-9.982-5h.182c.78.762 1.646 1.434 2.584 2h-2.766A2.003 2.003 0 0 0 8 28c0 2.618 1.244 4.568 3.346 5.906C13.486 35.272 16.53 36 20 36c3.47 0 6.514-.728 8.654-2.094C30.754 32.566 32 30.62 32 28a2 2 0 0 0-2-2h-4.082a6 6 0 0 0 0-2H30a4 4 0 0 1 4 4c0 3.382-1.666 5.932-4.27 7.594C27.166 37.228 23.71 38 20 38c-3.71 0-7.166-.772-9.73-2.406C7.666 33.934 6 31.38 6 28c0-2.226 1.806-4 4.018-4ZM28 14a8 8 0 0 1-3.74 6.774A6 6 0 0 0 22.4 19.5a6 6 0 1 0-4.8 0c-.7.306-1.33.74-1.86 1.274A8 8 0 1 1 28 14Z" fill="#1D2E4F"/></svg><svg fill="none" viewBox="0 0 40 40" id="icon-pen" xmlns="http://www.w3.org/2000/svg"><path d="m35.519 11.464-6.983-6.981a2.499 2.499 0 0 0-3.536 0L5.733 23.75A2.478 2.478 0 0 0 5 25.517V32.5A2.5 2.5 0 0 0 7.5 35h6.983a2.48 2.48 0 0 0 1.767-.733l13.073-13.072.544 2.172-5.75 5.749a1.25 1.25 0 0 0 1.767 1.768l6.25-6.25a1.249 1.249 0 0 0 .33-1.187l-1.078-4.314L35.519 15a2.5 2.5 0 0 0 0-3.536ZM7.5 28.017l4.483 4.483H7.5v-4.483Zm7.5 3.966L8.017 25 21.25 11.767l6.983 6.983L15 31.983Zm15-15L23.019 10l3.75-3.75 6.981 6.983-3.75 3.75Z" fill="#1D2E4F"/></svg><svg fill="none" viewBox="0 0 24 24" id="icon-phone" xmlns="http://www.w3.org/2000/svg"><path d="M3.752 6.925a.75.75 0 1 0-1.498.081l1.498-.081Zm.966-3.833a.75.75 0 0 0 1.087 1.033L4.718 3.092Zm5.946 16.72a.75.75 0 1 0 .798-1.27l-.798 1.27Zm4.449.246a.75.75 0 0 0-.307 1.469l.307-1.469Zm.532-4.514.455-.48-1.088-1.033-.455.48 1.088 1.033Zm1.954-.682 1.91 1.1.749-1.3-1.911-1.1-.748 1.3Zm2.279 3.38-1.421 1.495 1.088 1.034 1.42-1.496-1.087-1.033ZM8.359 15.959c-3.876-4.081-4.526-7.524-4.607-9.034l-1.498.081c.1 1.85.884 5.634 5.018 9.986l1.087-1.033Zm1.376-6.637.286-.302-1.087-1.033-.287.302 1.088 1.033Zm.512-4.062L8.986 3.477l-1.225.866 1.26 1.783 1.226-.866ZM9.19 8.805c-.18-.173-.362-.345-.545-.515l-.002.002-.003.003-.05.058a1.6 1.6 0 0 0-.23.427c-.098.275-.15.639-.084 1.093.13.892.715 2.091 2.242 3.7l1.088-1.034c-1.428-1.503-1.78-2.428-1.846-2.884-.032-.22 0-.335.013-.372l.008-.019-.028.037-.018.021-.545-.517Zm1.328 4.767c1.523 1.604 2.673 2.234 3.55 2.377.451.073.816.014 1.092-.095.153-.06.296-.144.422-.25l.035-.034.014-.014.007-.006.003-.003.001-.002s.002-.001-.542-.518c-.544-.516-.543-.517-.543-.518l.002-.001.002-.003.006-.005.047-.042c.01-.005.008-.005-.005.001-.02.008-.11.04-.3.009-.402-.066-1.27-.42-2.703-1.929l-1.088 1.033ZM8.986 3.477C7.972 2.043 5.944 1.8 4.718 3.092l1.087 1.033c.523-.55 1.444-.507 1.956.218l1.225-.866Zm9.471 16.26c-.279.294-.57.452-.854.48l.147 1.492c.747-.073 1.352-.471 1.795-.938l-1.088-1.034ZM10.021 9.02c.968-1.019 1.036-2.613.226-3.76l-1.225.866c.422.597.357 1.393-.088 1.861l1.087 1.033Zm9.488 6.942c.821.473.982 1.635.369 2.28l1.087 1.033c1.305-1.374.925-3.673-.707-4.613l-.749 1.3Zm-3.409-.898c.385-.406.986-.497 1.499-.202l.748-1.3c-1.099-.632-2.46-.451-3.335.469l1.088 1.033Zm-4.638 3.478c-.983-.618-2.03-1.454-3.103-2.583l-1.087 1.033c1.154 1.215 2.297 2.132 3.392 2.82l.798-1.27Zm6.14 1.675a8.298 8.298 0 0 1-2.489-.159l-.307 1.469c.967.209 1.96.27 2.944.182l-.148-1.492Z" fill="#1E1E1E"/></svg><svg fill="none" viewBox="0 0 12 24" id="icon-slider-next" xmlns="http://www.w3.org/2000/svg"><path fill-rule="evenodd" clip-rule="evenodd" d="M10.157 12.711 4.5 18.368l-1.414-1.414 4.95-4.95-4.95-4.95L4.5 5.64l5.657 5.657a1 1 0 0 1 0 1.414Z" fill="currentColor"/></svg><svg fill="none" viewBox="0 0 12 24" id="icon-slider-prev" xmlns="http://www.w3.org/2000/svg"><path fill-rule="evenodd" clip-rule="evenodd" d="M1.843 11.289 7.5 5.632l1.414 1.414-4.95 4.95 4.95 4.95L7.5 18.36l-5.657-5.657a1 1 0 0 1 0-1.414Z" fill="currentColor"/></svg><svg fill="none" viewBox="0 0 8 8" id="icon-small-aroow-v2" xmlns="http://www.w3.org/2000/svg"><path d="M6.981 4.2a.5.5 0 0 0 0-.706L3.8.312a.5.5 0 0 0-.707.707l2.829 2.828-2.829 2.829a.5.5 0 0 0 .707.707L6.981 4.2Zm-6.103.147h5.75v-1H.878v1Z" fill="#fff"/></svg><svg fill="none" viewBox="0 0 10 8" id="icon-small-arrow" xmlns="http://www.w3.org/2000/svg"><path d="M9.354 4.354a.5.5 0 0 0 0-.708L6.172.464a.5.5 0 1 0-.708.708L8.293 4 5.464 6.828a.5.5 0 1 0 .708.708l3.182-3.182ZM0 4.5h9v-1H0v1Z" fill="currentColor"/></svg><svg fill="none" viewBox="0 0 42 42" id="icon-smile" xmlns="http://www.w3.org/2000/svg"><path fill-rule="evenodd" clip-rule="evenodd" d="M21 7a14 14 0 1 0 0 28 14 14 0 0 0 0-28ZM3.5 21c0-9.665 7.835-17.5 17.5-17.5S38.5 11.335 38.5 21 30.665 38.5 21 38.5 3.5 30.665 3.5 21Zm11.375-3.5c-.341 0-.777.217-1.06.784a1.75 1.75 0 0 1-3.13-1.568C11.448 15.19 12.973 14 14.875 14c1.902 0 3.425 1.19 4.19 2.716a1.75 1.75 0 0 1-3.13 1.568c-.283-.567-.717-.784-1.06-.784Zm12.25 0c-.341 0-.777.217-1.06.784a1.75 1.75 0 1 1-3.13-1.568C23.7 15.19 25.224 14 27.126 14c1.902 0 3.425 1.19 4.19 2.716a1.75 1.75 0 0 1-3.13 1.568c-.283-.567-.717-.784-1.06-.784Zm-12.068 7.591a1.751 1.751 0 0 1 2.471-.154A5.22 5.22 0 0 0 21 26.25a5.217 5.217 0 0 0 3.472-1.313 1.75 1.75 0 0 1 2.317 2.625A8.715 8.715 0 0 1 21 29.75a8.715 8.715 0 0 1-5.789-2.188 1.751 1.751 0 0 1-.154-2.47Z" fill="#1D2E4F"/></svg><svg fill="none" viewBox="0 0 19 19" id="icon-telegram" xmlns="http://www.w3.org/2000/svg"><g clip-path="url(#pa)"><path d="M17.458 1.686.624 8.21c-.677.304-.906.913-.163 1.243l4.318 1.38L15.22 4.345c.57-.407 1.154-.298.652.15l-8.968 8.161-.281 3.454c.26.533.738.536 1.043.27l2.481-2.359 4.25 3.198c.986.588 1.523.209 1.736-.868L18.92 3.087c.289-1.325-.204-1.909-1.462-1.401Z" fill="#6493D9"/></g><defs><clipPath id="pa"><path fill="#fff" d="M0 0h19v19H0z"/></clipPath></defs></svg><svg fill="none" viewBox="0 0 24 24" id="icon-vk" xmlns="http://www.w3.org/2000/svg"><path d="M21.504 18.381h-2.282c-.863 0-1.123-.699-2.67-2.247-1.352-1.303-1.923-1.465-2.265-1.465-.473 0-.602.13-.602.781v2.052c0 .555-.18.88-1.63.88a8.9 8.9 0 0 1-6.955-4.17 18.18 18.18 0 0 1-3.6-7.558c0-.342.13-.652.782-.652h2.28c.586 0 .797.261 1.027.864 1.107 3.258 2.996 6.092 3.763 6.092.294 0 .422-.13.422-.863V8.739c-.097-1.531-.91-1.66-.91-2.214a.563.563 0 0 1 .585-.523h3.584c.49 0 .652.244.652.83v4.53c0 .489.21.651.358.651.294 0 .52-.162 1.059-.7a18.759 18.759 0 0 0 2.802-4.66.982.982 0 0 1 .993-.65h2.281c.684 0 .829.342.684.83a28.467 28.467 0 0 1-3.062 5.262c-.246.375-.344.57 0 1.01.226.342 1.026 1.01 1.563 1.645.782.78 1.431 1.682 1.922 2.67.196.636-.13.961-.781.961Z" fill="#3E8CFF"/></svg><svg fill="none" viewBox="0 0 24 24" id="icon-whatsapp" xmlns="http://www.w3.org/2000/svg"><g clip-path="url(#ra)"><path fill-rule="evenodd" clip-rule="evenodd" d="M12 2C6.477 2 2 6.477 2 12c0 1.89.525 3.66 1.438 5.168L2.546 20.2A1.01 1.01 0 0 0 3.8 21.454l3.032-.892A9.96 9.96 0 0 0 12 22c5.523 0 10-4.477 10-10S17.523 2 12 2ZM9.738 14.263c2.023 2.022 3.954 2.289 4.636 2.314 1.037.038 2.047-.754 2.44-1.673a.7.7 0 0 0-.088-.703c-.548-.7-1.289-1.203-2.013-1.703a.71.71 0 0 0-.973.158l-.6.915a.23.23 0 0 1-.305.076c-.407-.233-1-.629-1.426-1.055-.426-.426-.798-.992-1.007-1.373a.23.23 0 0 1 .067-.291l.924-.686a.71.71 0 0 0 .12-.94c-.448-.656-.97-1.49-1.727-2.043a.7.7 0 0 0-.684-.075c-.92.394-1.716 1.404-1.678 2.443.025.682.292 2.613 2.314 4.636Z" fill="#3CDE21"/></g><defs><clipPath id="ra"><path fill="#fff" d="M0 0h24v24H0z"/></clipPath></defs></svg><svg fill="none" viewBox="0 0 24 24" id="icon-youtube" xmlns="http://www.w3.org/2000/svg"><path d="m10 15 5.19-3L10 9v6Zm11.56-7.83c.13.47.22 1.1.28 1.9.07.8.1 1.49.1 2.09L22 12c0 2.19-.16 3.8-.44 4.83-.25.9-.83 1.48-1.73 1.73-.47.13-1.33.22-2.65.28-1.3.07-2.49.1-3.59.1L12 19c-4.19 0-6.8-.16-7.83-.44-.9-.25-1.48-.83-1.73-1.73-.13-.47-.22-1.1-.28-1.9-.07-.8-.1-1.49-.1-2.09L2 12c0-2.19.16-3.8.44-4.83.25-.9.83-1.48 1.73-1.73.47-.13 1.33-.22 2.65-.28 1.3-.07 2.49-.1 3.59-.1L12 5c4.19 0 6.8.16 7.83.44.9.25 1.48.83 1.73 1.73Z" fill="#FB4747"/></svg></svg>