<?xml version="1.0" encoding="utf-8"?><svg viewBox="0 0 24 24" xmlns="http://www.w3.org/2000/svg" xmlns:xlink="http://www.w3.org/1999/xlink"><style>:root>svg{display:none}:root>svg:target{display:block}</style><svg fill="none" viewBox="0 0 16 22" id="arrow-up" xmlns="http://www.w3.org/2000/svg"><path d="M9.031.585a1.444 1.444 0 0 0-.477-.303 1.358 1.358 0 0 0-1.097 0c-.178.069-.34.172-.477.303L1.202 6.363a1.45 1.45 0 0 0 2.051 2.051l3.308-3.322v15.297a1.444 1.444 0 1 0 2.889 0V5.092l3.308 3.322a1.45 1.45 0 0 0 2.05-2.051L9.032.585Z" fill="currentColor"/></svg><svg fill="none" viewBox="0 0 24 24" id="bracket-gt" xmlns="http://www.w3.org/2000/svg"><path d="M8.4 1.2 6.72 3l8.88 9-8.88 9 1.68 1.8L19.2 12 8.4 1.2Z" fill="currentColor"/></svg><svg fill="none" viewBox="0 0 24 24" id="bracket-lt" xmlns="http://www.w3.org/2000/svg"><path d="m15.6 22.8 1.68-1.8-8.88-9 8.88-9-1.68-1.8L4.8 12l10.8 10.8Z" fill="currentColor"/></svg><svg viewBox="0 0 14 14" id="cross" xmlns="http://www.w3.org/2000/svg"><path fill-rule="evenodd" clip-rule="evenodd" d="m8.414 7 5.293-5.293A.999.999 0 1 0 12.293.293L7 5.586 1.707.293A.999.999 0 1 0 .293 1.707L5.586 7 .293 12.293a.999.999 0 1 0 1.414 1.414L7 8.414l5.293 5.293a.997.997 0 0 0 1.414 0 .999.999 0 0 0 0-1.414L8.414 7Z" fill="currentColor"/></svg><svg fill="none" viewBox="0 0 24 24" id="icon-phone" xmlns="http://www.w3.org/2000/svg"><path d="M3.752 6.925a.75.75 0 1 0-1.498.081l1.498-.081Zm.966-3.833a.75.75 0 0 0 1.087 1.033L4.718 3.092Zm5.946 16.72a.75.75 0 1 0 .798-1.27l-.798 1.27Zm4.449.246a.75.75 0 0 0-.307 1.469l.307-1.469Zm.532-4.514.455-.48-1.088-1.033-.455.48 1.088 1.033Zm1.954-.682 1.91 1.1.749-1.3-1.911-1.1-.748 1.3Zm2.279 3.38-1.421 1.495 1.088 1.034 1.42-1.496-1.087-1.033ZM8.359 15.959c-3.876-4.081-4.526-7.524-4.607-9.034l-1.498.081c.1 1.85.884 5.634 5.018 9.986l1.087-1.033Zm1.376-6.637.286-.302-1.087-1.033-.287.302 1.088 1.033Zm.512-4.062L8.986 3.477l-1.225.866 1.26 1.783 1.226-.866ZM9.19 8.805c-.18-.173-.362-.345-.545-.515l-.002.002-.003.003-.05.058a1.6 1.6 0 0 0-.23.427c-.098.275-.15.639-.084 1.093.13.892.715 2.091 2.242 3.7l1.088-1.034c-1.428-1.503-1.78-2.428-1.846-2.884-.032-.22 0-.335.013-.372l.008-.019-.028.037-.018.021-.545-.517Zm1.328 4.767c1.523 1.604 2.673 2.234 3.55 2.377.451.073.816.014 1.092-.095.153-.06.296-.144.422-.25l.035-.034.014-.014.007-.006.003-.003.001-.002s.002-.001-.542-.518c-.544-.516-.543-.517-.543-.518l.002-.001.002-.003.006-.005.047-.042c.01-.005.008-.005-.005.001-.02.008-.11.04-.3.009-.402-.066-1.27-.42-2.703-1.929l-1.088 1.033ZM8.986 3.477C7.972 2.043 5.944 1.8 4.718 3.092l1.087 1.033c.523-.55 1.444-.507 1.956.218l1.225-.866Zm9.471 16.26c-.279.294-.57.452-.854.48l.147 1.492c.747-.073 1.352-.471 1.795-.938l-1.088-1.034ZM10.021 9.02c.968-1.019 1.036-2.613.226-3.76l-1.225.866c.422.597.357 1.393-.088 1.861l1.087 1.033Zm9.488 6.942c.821.473.982 1.635.369 2.28l1.087 1.033c1.305-1.374.925-3.673-.707-4.613l-.749 1.3Zm-3.409-.898c.385-.406.986-.497 1.499-.202l.748-1.3c-1.099-.632-2.46-.451-3.335.469l1.088 1.033Zm-4.638 3.478c-.983-.618-2.03-1.454-3.103-2.583l-1.087 1.033c1.154 1.215 2.297 2.132 3.392 2.82l.798-1.27Zm6.14 1.675a8.298 8.298 0 0 1-2.489-.159l-.307 1.469c.967.209 1.96.27 2.944.182l-.148-1.492Z" fill="#1E1E1E"/></svg></svg>